# xmcd CD database file
#
# Track frame offsets:
#	150
#	21993
#	36935
#	59479
#	75545
#	90134
#	104740
#	119738
#	136269
#	152890
#	167330
#	184282
#	201657
#	217314
#	230532
#
# Disc length: 3372 seconds
#
# Revision: 0
# Processed by: cddbd v1.5.2PL0 Copyright (c) Steve Scherf et al.
# Submitted via: CDex 1.51
#
DISCID=dc0d2a0f
DTITLE=Fabricio e Fernando - Fabricio e Fernando - Ao vivo
DYEAR=1900
DGENRE=Country
TTITLE0=Agenda Rabiscado
TTITLE1=Bye Bye  Solidao
TTITLE2=Bem Simplisinho/Dando Porrada
TTITLE3=Cade Você/Minha vida sem Ela
TTITLE4=Convite de Casamento
TTITLE5=Amor de Novela
TTITLE6=Apenas mais um Amor
TTITLE7=Sempre te Amei
TTITLE8=Manda Cerveja
TTITLE9=To Sozinho
TTITLE10=Experimenta/Mi na Espiga
TTITLE11=Chora Viola/Cavalo Enxuto/Amigos da Viola/Jeitao Caipira
TTITLE12=Segredo
TTITLE13=Amor de Primavera/Estrada do Amor
TTITLE14=Vidas Marcadas
EXTD=
EXTT0=
EXTT1=
EXTT2=
EXTT3=
EXTT4=
EXTT5=
EXTT6=
EXTT7=
EXTT8=
EXTT9=
EXTT10=
EXTT11=
EXTT12=
EXTT13=
EXTT14=
PLAYORDER=
